HIERARCHY
ROOT Hips
{
	OFFSET -0.001795 -0.223333 0.028219
	CHANNELS 6 Xposition Yposition Zposition Zrotation Yrotation Xrotation 
	JOINT LeftUpLeg
	{
		OFFSET 0.069520 -0.091406 -0.006815
		CHANNELS 3 Zrotation Yrotation Xrotation
		JOINT LeftLeg
		{
			OFFSET 0.034277 -0.375199 -0.004496
			CHANNELS 3 Zrotation Yrotation Xrotation
			JOINT LeftFoot
			{
				OFFSET -0.013596 -0.397961 -0.043693
				CHANNELS 3 Zrotation Yrotation Xrotation
				JOINT LeftToe
				{
					OFFSET 0.026358 -0.055791 0.119288
					CHANNELS 3 Zrotation Yrotation Xrotation
					End Site
					{
						OFFSET 0.000000 0.000000 0.000000
					}
				}
			}
		}
	}
	JOINT RightUpLeg
	{
		OFFSET -0.067670 -0.090522 -0.004320
		CHANNELS 3 Zrotation Yrotation Xrotation
		JOINT RightLeg
		{
			OFFSET -0.038290 -0.382569 -0.008850
			CHANNELS 3 Zrotation Yrotation Xrotation
			JOINT RightFoot
			{
				OFFSET 0.015774 -0.398415 -0.042312
				CHANNELS 3 Zrotation Yrotation Xrotation
				JOINT RightToe
				{
					OFFSET -0.025372 -0.048144 0.123348
					CHANNELS 3 Zrotation Yrotation Xrotation
					End Site
					{
						OFFSET 0.000000 0.000000 0.000000
					}
				}
			}
		}
	}
	JOINT Spine
	{
		OFFSET -0.002533 0.108963 -0.026696
		CHANNELS 3 Zrotation Yrotation Xrotation
		JOINT Spine1
		{
			OFFSET 0.005487 0.135180 0.001092
			CHANNELS 3 Zrotation Yrotation Xrotation
			JOINT Spine2
			{
				OFFSET 0.001457 0.052922 0.025425
				CHANNELS 3 Zrotation Yrotation Xrotation
				JOINT Neck
				{
					OFFSET -0.002778 0.213870 -0.042857
					CHANNELS 3 Zrotation Yrotation Xrotation
					JOINT Head
					{
						OFFSET 0.005152 0.064970 0.051349
						CHANNELS 3 Zrotation Yrotation Xrotation
						End Site
						{
							OFFSET 0.000000 0.000000 0.000000
						}
					}
				}
				JOINT LeftShoulder
				{
					OFFSET 0.078845 0.121749 -0.034090
					CHANNELS 3 Zrotation Yrotation Xrotation
					JOINT LeftArm
					{
						OFFSET 0.090977 0.030469 -0.008868
						CHANNELS 3 Zrotation Yrotation Xrotation
						JOINT LeftForeArm
						{
							OFFSET 0.259612 -0.012772 -0.027456
							CHANNELS 3 Zrotation Yrotation Xrotation
							JOINT LeftHand
							{
								OFFSET 0.249234 0.008986 -0.001171
								CHANNELS 3 Zrotation Yrotation Xrotation
								End Site
								{
									OFFSET 0.000000 0.000000 0.000000
								}
							}
						}
					}
				}
				JOINT RightShoulder
				{
					OFFSET -0.081759 0.118833 -0.038615
					CHANNELS 3 Zrotation Yrotation Xrotation
					JOINT RightArm
					{
						OFFSET -0.096012 0.032551 -0.009143
						CHANNELS 3 Zrotation Yrotation Xrotation
						JOINT RightForeArm
						{
							OFFSET -0.253742 -0.013329 -0.021401
							CHANNELS 3 Zrotation Yrotation Xrotation
							JOINT RightHand
							{
								OFFSET -0.255298 0.007772 -0.005559
								CHANNELS 3 Zrotation Yrotation Xrotation
								End Site
								{
									OFFSET 0.000000 0.000000 0.000000
								}
							}
						}
					}
				}
			}
		}
	}
}
MOTION
Frames: 10
Frame Time: 0.050000
0.000000 0.904139 0.000000 1.157700 -21.895828 -1.923770 -2.750891 -1.606556 -19.384656 -4.827570 1.191181 8.929590 7.852202 15.254487 9.002984 0.000000 0.000000 0.000000 3.108629 -1.154249 14.448357 2.435182 0.798038 16.801644 -1.455520 -0.063975 -4.216433 0.000000 0.000000 0.000000 -5.630228 0.604579 13.627586 4.230678 -1.033677 -21.009370 3.061128 13.896858 27.747027 2.472396 0.615257 -29.038882 0.000000 0.000000 0.000000 -28.458950 -1.601789 -0.775520 -46.263928 -8.054315 -4.777245 -9.889127 -27.125334 3.773561 0.000000 0.000000 0.000000 18.123988 10.925056 4.826807 50.470994 22.301783 1.962784 9.532227 40.279556 5.412900 0.000000 0.000000 0.000000 
-0.016964 0.909628 0.049447 0.594447 -20.949176 -1.909646 -3.100973 -1.544205 -15.934178 -4.410224 1.167034 10.558344 6.535023 13.402659 4.987311 0.000000 0.000000 0.000000 2.493800 -0.885283 9.964230 4.471005 1.697861 30.407113 1.086891 2.635547 -0.006911 0.000000 0.000000 0.000000 -6.757334 0.822998 14.647788 5.810827 -1.338996 -21.619438 2.566215 11.447247 27.067601 1.548670 0.840302 -28.998986 0.000000 0.000000 0.000000 -30.009005 0.462759 -1.675715 -44.923839 -9.317208 -4.428222 -9.910836 -26.136461 3.688049 0.000000 0.000000 0.000000 17.201253 10.781483 4.305905 51.920169 18.395891 0.432994 14.421568 42.504360 7.460305 0.000000 0.000000 0.000000 
-0.033201 0.916322 0.096502 1.044303 -21.381500 -2.893969 -3.585804 -1.436287 -13.065603 -5.411042 1.705529 13.527416 6.579834 14.095086 -0.072587 0.000000 0.000000 0.000000 -1.765002 -0.023819 2.448713 11.670449 0.669931 45.635811 0.188505 -4.262189 7.716855 0.000000 0.000000 0.000000 -6.848437 0.950055 16.103153 5.758593 -1.346905 -21.612414 2.068736 10.725845 25.823262 0.519999 1.288955 -28.708427 0.000000 0.000000 0.000000 -30.470085 0.156089 -1.265498 -43.993764 -10.404990 -3.937000 -9.315331 -26.036367 3.525581 0.000000 0.000000 0.000000 17.178163 9.087335 3.196439 52.304070 16.092730 -0.377653 16.144371 39.942584 7.410099 0.000000 0.000000 0.000000 
-0.049694 0.920908 0.140886 0.287908 -21.681773 -3.922282 -2.679481 -0.927245 -8.025986 -5.541206 1.726062 13.114093 4.937202 10.814978 -1.873906 0.000000 0.000000 0.000000 -2.968685 0.477068 -4.677100 16.351919 -0.840374 55.472141 -4.984335 -14.827677 10.195633 0.000000 0.000000 0.000000 -6.269289 0.957307 17.676005 6.234174 -1.695217 -19.689584 0.978816 8.712837 23.909616 -0.103217 1.295170 -27.473909 0.000000 0.000000 0.000000 -29.806296 0.217872 -0.633864 -44.078093 -11.895662 -3.489649 -10.106200 -28.251975 4.123361 0.000000 0.000000 0.000000 18.502023 10.213367 3.248135 50.202124 14.731401 -0.728531 17.560399 39.904099 7.583250 0.000000 0.000000 0.000000 
-0.067205 0.923608 0.183017 -0.886819 -21.224211 -4.771284 -2.023674 -0.463960 -3.738359 -4.243964 1.387799 13.975586 4.223688 9.337106 -4.700316 0.000000 0.000000 0.000000 -4.228418 0.942597 -10.509094 18.642222 -2.285565 55.498947 -7.287822 -18.639800 7.057663 0.000000 0.000000 0.000000 -5.705965 0.993553 19.778833 7.173080 -1.741940 -21.467195 0.378760 6.198068 25.647936 0.288760 0.723900 -28.405498 0.000000 0.000000 0.000000 -31.243206 -0.215703 0.664700 -40.910197 -15.546849 -2.708632 -9.848145 -29.785498 4.381153 0.000000 0.000000 0.000000 18.145484 10.145830 2.685757 50.549531 13.801879 -1.196071 17.806298 38.540797 7.161292 0.000000 0.000000 0.000000 
-0.085027 0.923186 0.223766 -2.062403 -20.617238 -5.002906 -1.258926 -0.044438 -0.222572 -3.219370 1.041930 13.901654 3.783145 8.234753 -8.066167 0.000000 0.000000 0.000000 -4.253983 1.482845 -15.889012 17.997375 -2.322369 50.031119 -9.612300 -22.973680 3.570053 0.000000 0.000000 0.000000 -4.635782 0.853958 21.149628 7.477526 -1.701928 -22.464397 0.598693 3.180473 26.888849 -0.876885 0.969098 -29.702567 0.000000 0.000000 0.000000 -30.556033 -0.454423 1.951143 -40.693778 -19.612225 -1.815677 -7.331027 -32.586266 4.282264 0.000000 0.000000 0.000000 19.054310 10.647597 2.226780 48.529077 13.270363 -1.304168 17.970915 36.704431 6.531691 0.000000 0.000000 0.000000 
-0.103390 0.920114 0.263430 -2.518436 -18.664618 -5.254221 -0.481129 0.379162 3.317261 -2.681177 0.757692 13.077881 3.405285 6.909607 -9.331428 0.000000 0.000000 0.000000 -3.724905 1.991713 -19.906037 14.411622 -1.477472 39.417054 -9.622981 -22.767486 0.592095 0.000000 0.000000 0.000000 -4.371755 0.781488 22.062325 8.102984 -1.772319 -22.898486 0.289935 0.608857 27.242698 -0.990367 0.780718 -30.231516 0.000000 0.000000 0.000000 -30.209215 -0.861790 2.830123 -39.577038 -23.350060 -0.863729 -4.967556 -34.708171 3.964702 0.000000 0.000000 0.000000 18.789521 9.665793 1.361446 48.561723 11.151546 -2.092670 18.596222 35.011000 6.227485 0.000000 0.000000 0.000000 
-0.121697 0.914423 0.302984 -2.132485 -17.784920 -5.345213 -0.632024 0.672979 5.712142 -1.983701 0.535142 13.135215 3.490422 6.768118 -12.196539 0.000000 0.000000 0.000000 -2.822590 2.282148 -21.330684 9.158346 -0.404490 25.091302 -8.488134 -19.864018 -0.880189 0.000000 0.000000 0.000000 -4.822944 0.844770 22.131581 8.972066 -1.976559 -22.800609 -0.188279 -0.852717 27.872533 -1.050858 0.653649 -30.946282 0.000000 0.000000 0.000000 -29.187584 -2.342825 4.172786 -38.993323 -26.409937 -0.021983 -1.085569 -36.916621 3.043326 0.000000 0.000000 0.000000 19.093571 9.104465 0.783466 48.356810 9.232419 -2.809938 18.252704 33.094783 5.669902 0.000000 0.000000 0.000000 
-0.140154 0.906545 0.343870 -2.217538 -16.905695 -4.519041 -0.202597 0.949529 7.998999 -1.899330 0.442880 12.114082 3.343420 5.898361 -14.040129 0.000000 0.000000 0.000000 -2.207186 2.571094 -22.808596 5.240722 -0.176599 11.062481 -4.950750 -13.179433 2.677683 0.000000 0.000000 0.000000 -4.172796 0.651905 21.717431 9.786627 -2.272024 -21.901055 -0.679912 -2.316317 26.747302 -1.259770 0.647608 -31.580221 0.000000 0.000000 0.000000 -29.620432 -2.138639 4.325945 -38.122017 -29.447052 0.884657 1.353367 -37.581123 2.318042 0.000000 0.000000 0.000000 19.097768 9.279046 0.592033 48.108811 7.512414 -3.273839 15.980708 30.586793 4.540891 0.000000 0.000000 0.000000 
-0.159959 0.897897 0.387167 -1.867301 -15.561924 -3.449269 -0.149072 1.129358 9.513375 -1.652660 0.352713 12.568498 3.754267 6.442539 -16.617297 0.000000 0.000000 0.000000 -2.653259 2.660037 -24.200307 4.420186 -0.255319 4.881573 -2.827620 -10.527926 7.114374 0.000000 0.000000 0.000000 -4.100609 0.563132 21.247481 10.841629 -2.388369 -22.628748 -1.085213 -3.483057 26.728943 -0.227574 -0.015180 -30.916951 0.000000 0.000000 0.000000 -30.475510 -2.969303 5.186881 -36.636073 -30.103081 0.754592 2.021037 -38.777732 2.163519 0.000000 0.000000 0.000000 19.645761 8.812257 0.171449 47.149818 6.079990 -3.689717 14.271178 28.757352 3.827736 0.000000 0.000000 0.000000 
